<?xml version="1.0" encoding="UTF-8" standalone="no"?>
<svg
   xmlns:dc="http://purl.org/dc/elements/1.1/"
   xmlns:cc="http://creativecommons.org/ns#"
   xmlns:rdf="http://www.w3.org/1999/02/22-rdf-syntax-ns#"
   xmlns:svg="http://www.w3.org/2000/svg"
   xmlns="http://www.w3.org/2000/svg"
   viewBox="0 0 450 450"
   height="450"
   width="450"
   xml:space="preserve"
   version="1.1"
   id="svg2"><metadata
     id="metadata8"><rdf:RDF><cc:Work
         rdf:about=""><dc:format>image/svg+xml</dc:format><dc:type
           rdf:resource="http://purl.org/dc/dcmitype/StillImage" /></cc:Work></rdf:RDF></metadata><defs
     id="defs6"><clipPath
       id="clipPath16"
       clipPathUnits="userSpaceOnUse"><path
         id="path18"
         d="M 0,360 360,360 360,0 0,0 0,360 Z" /></clipPath></defs><g
     transform="matrix(1.25,0,0,-1.25,0,450)"
     id="g10"><g
       id="g12"><g
         clip-path="url(#clipPath16)"
         id="g14"><g
           transform="translate(327.5586,226.5679)"
           id="g20"><path
             id="path22"
             style="fill:#d1d3d4;fill-opacity:1;fill-rule:nonzero;stroke:#000000;stroke-width:10px"
             d="m 0,0 c 0,-24.512 -9.98,-46.712 -26.105,-62.722 l -108.208,-111.604 c -7.23,-7.207 -18.919,-7.207 -26.151,0 L -267.7,-63.669 c -16.68,16.078 -27.052,38.671 -27.052,63.669 0,48.86 39.595,88.478 88.456,88.478 22.616,0 43.269,-8.502 58.909,-22.478 15.641,13.976 36.291,22.478 58.909,22.478 C -39.621,88.478 0,48.86 0,0" /></g></g></g></g></svg>
