<?xml version="1.0" encoding="UTF-8" standalone="no"?>
<svg
   xmlns:dc="http://purl.org/dc/elements/1.1/"
   xmlns:cc="http://creativecommons.org/ns#"
   xmlns:rdf="http://www.w3.org/1999/02/22-rdf-syntax-ns#"
   xmlns:svg="http://www.w3.org/2000/svg"
   xmlns="http://www.w3.org/2000/svg"
   viewBox="0 0 450 450"
   height="450"
   width="450"
   xml:space="preserve"
   version="1.1"
   id="svg2"><metadata
     id="metadata8"><rdf:RDF><cc:Work
         rdf:about=""><dc:format>image/svg+xml</dc:format><dc:type
           rdf:resource="http://purl.org/dc/dcmitype/StillImage" /></cc:Work></rdf:RDF></metadata><defs
     id="defs6"><clipPath
       id="clipPath16"
       clipPathUnits="userSpaceOnUse"><path
         id="path18"
         d="M 0,360 360,360 360,0 0,0 0,360 Z" /></clipPath></defs><g
     transform="matrix(1.25,0,0,-1.25,0,450)"
     id="g10"><g
       id="g12"><g
         clip-path="url(#clipPath16)"
         id="g14"><g
           transform="translate(335.667,178.1484)"
           id="g20"><path
             id="path22"
             style="fill:#231f20;fill-opacity:1;fill-rule:nonzero;stroke:none"
             d="m 0,0 c 0,-5.282 -1.123,-8.976 -3.04,-12.039 -1.894,-3.065 -4.58,-5.516 -7.715,-8.275 l -122.234,-110.827 c -11.899,-1.005 -15.99,4.301 -15.99,14.844 l 0,6.031 -144.418,0 c -10.333,0 -18.702,8.37 -18.702,18.702 l 0,184.672 c 0,10.309 8.369,18.701 18.702,18.701 l 144.418,0 0,5.938 c 0,10.543 8.182,18.373 17.251,13.628 L -11.923,19.706 C -4.652,10.286 0,10.543 0,0" /></g></g></g></g></svg>