<?xml version="1.0" encoding="UTF-8" standalone="no"?>
<svg
   xmlns:dc="http://purl.org/dc/elements/1.1/"
   xmlns:cc="http://creativecommons.org/ns#"
   xmlns:rdf="http://www.w3.org/1999/02/22-rdf-syntax-ns#"
   xmlns:svg="http://www.w3.org/2000/svg"
   xmlns="http://www.w3.org/2000/svg"
   viewBox="0 0 450 450"
   height="450"
   width="450"
   xml:space="preserve"
   version="1.1"
   id="svg2"><metadata
     id="metadata8"><rdf:RDF><cc:Work
         rdf:about=""><dc:format>image/svg+xml</dc:format><dc:type
           rdf:resource="http://purl.org/dc/dcmitype/StillImage" /></cc:Work></rdf:RDF></metadata><defs
     id="defs6"><clipPath
       id="clipPath16"
       clipPathUnits="userSpaceOnUse"><path
         id="path18"
         d="M 0,360 360,360 360,0 0,0 0,360 Z" /></clipPath></defs><g
     transform="matrix(1.25,0,0,-1.25,0,450)"
     id="g10"><g
       id="g12"><g
         clip-path="url(#clipPath16)"
         id="g14"><g
           transform="translate(354.4404,162.0703)"
           id="g20"><path
             id="path22"
             style="fill:#231f20;fill-opacity:1;fill-rule:nonzero;stroke:none"
             d="m 0,0 -41.515,-39.318 0,-57.157 c 0,-10.332 -8.369,-18.701 -18.701,-18.701 l -61.388,0 -44.603,-42.242 c -7.48,-7.081 -19.332,-6.777 -26.438,0.727 l -39.319,41.515 -57.155,0 c -10.333,0 -18.701,8.369 -18.701,18.701 l 0,61.386 -42.242,44.603 c -7.083,7.504 -6.779,19.333 0.725,26.44 l 41.517,39.318 0,57.155 c 0,10.333 8.368,18.702 18.701,18.702 l 61.387,0 44.602,42.24 c 7.503,7.084 19.331,6.78 26.438,-0.724 l 39.318,-41.516 57.158,0 c 10.332,0 18.701,-8.369 18.701,-18.702 l 0,-61.386 L 0.724,26.44 C 7.808,18.958 7.502,7.107 0,0" /></g></g></g></g></svg>