<?xml version="1.0" encoding="UTF-8" standalone="no"?>
<svg
   xmlns:dc="http://purl.org/dc/elements/1.1/"
   xmlns:cc="http://creativecommons.org/ns#"
   xmlns:rdf="http://www.w3.org/1999/02/22-rdf-syntax-ns#"
   xmlns:svg="http://www.w3.org/2000/svg"
   xmlns="http://www.w3.org/2000/svg"
   xmlns:sodipodi="http://sodipodi.sourceforge.net/DTD/sodipodi-0.dtd"
   xmlns:inkscape="http://www.inkscape.org/namespaces/inkscape"
   viewBox="0 0 450 450"
   height="450"
   width="450"
   xml:space="preserve"
   version="1.1"
   id="svg2"
   sodipodi:docname="actions.svg"
   inkscape:version="0.92.3 (2405546, 2018-03-11)"><sodipodi:namedview
     pagecolor="#ffffff"
     bordercolor="#666666"
     borderopacity="1"
     objecttolerance="10"
     gridtolerance="10"
     guidetolerance="10"
     inkscape:pageopacity="0"
     inkscape:pageshadow="2"
     inkscape:window-width="1920"
     inkscape:window-height="1001"
     id="namedview70"
     showgrid="false"
     inkscape:zoom="1.6955556"
     inkscape:cx="225"
     inkscape:cy="225"
     inkscape:window-x="0"
     inkscape:window-y="0"
     inkscape:window-maximized="1"
     inkscape:current-layer="svg2" /><metadata
     id="metadata8"><rdf:RDF><cc:Work
         rdf:about=""><dc:format>image/svg+xml</dc:format><dc:type
           rdf:resource="http://purl.org/dc/dcmitype/StillImage" /></cc:Work></rdf:RDF></metadata><defs
     id="defs6"><clipPath
       id="clipPath16"
       clipPathUnits="userSpaceOnUse"><path
         id="path18"
         d="M 0,360 360,360 360,0 0,0 0,360 Z" /></clipPath></defs><path
     id="path22"
     style="fill:#d1d3d4;fill-opacity:1;fill-rule:nonzero;stroke:#000000;stroke-width:12.5px"
     d="m 419.58375,227.3145 c 0,6.6025 -1.40375,11.22 -3.8,15.04875 -2.3675,3.83125 -5.725,6.895 -9.64375,10.34375 L 253.3475,391.24075 C 238.47375,392.497 233.36,385.8645 233.36,372.68575 V 365.147 H 52.8375 C 39.92125,365.147 29.46,354.6845 29.46,341.7695 v -230.84 c 0,-12.88625 10.46125,-23.37625 23.3775,-23.37625 H 233.36 v -7.4225 c 0,-13.17875 10.2275,-22.96625 21.56375,-17.035 L 404.68,202.682 c 9.08875,11.775 14.90375,11.45375 14.90375,24.6325"
     inkscape:connector-curvature="0" /></svg>