<?xml version="1.0" encoding="UTF-8" standalone="no"?>
<svg
   xmlns:dc="http://purl.org/dc/elements/1.1/"
   xmlns:cc="http://creativecommons.org/ns#"
   xmlns:rdf="http://www.w3.org/1999/02/22-rdf-syntax-ns#"
   xmlns:svg="http://www.w3.org/2000/svg"
   xmlns="http://www.w3.org/2000/svg"
   xmlns:sodipodi="http://sodipodi.sourceforge.net/DTD/sodipodi-0.dtd"
   xmlns:inkscape="http://www.inkscape.org/namespaces/inkscape"
   viewBox="0 0 450 450"
   height="450"
   width="450"
   xml:space="preserve"
   version="1.1"
   id="svg2"
   sodipodi:docname="feelings.svg"
   inkscape:version="0.92.3 (2405546, 2018-03-11)"><sodipodi:namedview
     pagecolor="#ffffff"
     bordercolor="#666666"
     borderopacity="1"
     objecttolerance="10"
     gridtolerance="10"
     guidetolerance="10"
     inkscape:pageopacity="0"
     inkscape:pageshadow="2"
     inkscape:window-width="688"
     inkscape:window-height="480"
     id="namedview12"
     showgrid="false"
     inkscape:zoom="0.52444444"
     inkscape:cx="225"
     inkscape:cy="225"
     inkscape:window-x="0"
     inkscape:window-y="0"
     inkscape:window-maximized="0"
     inkscape:current-layer="svg2" /><metadata
     id="metadata8"><rdf:RDF><cc:Work
         rdf:about=""><dc:format>image/svg+xml</dc:format><dc:type
           rdf:resource="http://purl.org/dc/dcmitype/StillImage" /></cc:Work></rdf:RDF></metadata><defs
     id="defs6"><clipPath
       id="clipPath16"
       clipPathUnits="userSpaceOnUse"><path
         id="path18"
         d="M 0,360 360,360 360,0 0,0 0,360 Z" /></clipPath></defs><path
     id="path22"
     style="fill:#d1d3d4;fill-opacity:1;fill-rule:nonzero;stroke:#000000;stroke-width:12.5px"
     d="m 409.44825,166.79012 c 0,30.64 -12.475,58.39 -32.63125,78.4025 l -135.26,139.505 c -9.0375,9.00875 -23.64875,9.00875 -32.68875,0 L 74.82325,246.37637 c -20.85,-20.0975 -33.815,-48.33875 -33.815,-79.58625 0,-61.075 49.49375,-110.5975 110.57,-110.5975 28.27,0 54.08625,10.6275 73.63625,28.0975 19.55125,-17.47 45.36375,-28.0975 73.63625,-28.0975 61.07125,0 110.5975,49.5225 110.5975,110.5975"
     inkscape:connector-curvature="0" /></svg>